<?xml version="1.0" encoding="utf-8"?>
<!-- Generator: Adobe Illustrator 26.5.0, SVG Export Plug-In . SVG Version: 6.00 Build 0)  -->
<svg version="1.1" id="Logo" xmlns="http://www.w3.org/2000/svg" xmlns:xlink="http://www.w3.org/1999/xlink" x="0px" y="0px"
	 viewBox="0 0 912.6 425.2" style="enable-background:new 0 0 912.6 425.2;" xml:space="preserve">
<style type="text/css">
	.st0{fill:#FFFFFF;}
</style>
<g>
	<g>
		<path class="st0" d="M749.2,290.5l-50.3-13l-0.1-137.2c-0.3-0.2-0.5-0.3-0.8-0.5l0.1,137.9c0,0.2,0.1,0.3,0.3,0.4l50.7,13.1
			C749.1,291,749.1,290.7,749.2,290.5z"/>
	</g>
	<g>
		<path class="st0" d="M698.8,117.3l0-21.9l50.7,0c-0.1-0.2-0.1-0.5,0-0.8l-51.1,0c0,0,0,0,0,0c-0.1,0-0.2,0-0.3,0.1
			c-0.1,0.1-0.1,0.2-0.1,0.3l0,22.4C698.3,117.3,698.5,117.3,698.8,117.3z"/>
	</g>
	<g>
		<path class="st0" d="M822.9,95.4l0,22.1c0.2-0.1,0.5-0.1,0.8-0.1l0-22.4c0-0.2-0.2-0.4-0.4-0.4l-52.2,0c0.1,0.2,0.1,0.5,0.1,0.8
			L822.9,95.4z"/>
	</g>
	<g>
		<path class="st0" d="M823.7,143.3c-0.2,0.2-0.5,0.3-0.8,0.4l0.2,165.9l-51.8-13.4c0.1,0.3,0.1,0.6,0.1,0.8l52,13.5
			c0,0,0.1,0,0.1,0c0.1,0,0.2,0,0.2-0.1c0.1-0.1,0.1-0.2,0.1-0.3L823.7,143.3z"/>
	</g>
	<g>
		<path class="st0" d="M818.5,137.5h-47.1c-0.4,0-0.8,0.3-0.8,0.8v15.3c0.5-0.4,1-0.8,1.5-1.1v-13.4h44
			C816.7,138.4,817.6,137.9,818.5,137.5z"/>
	</g>
	<g>
		<path class="st0" d="M740.1,137.5h-30.4c1,0.3,1.9,0.8,2.6,1.5h28C740,138.6,739.9,138,740.1,137.5z"/>
	</g>
	<g>
		<path class="st0" d="M860.6,116.8h-88.5V71.6c0-0.4-0.3-0.8-0.8-0.8h-21.8c-0.4,0-0.8,0.3-0.8,0.8v45.2h-88.5
			c-0.4,0-0.8,0.3-0.8,0.8v20.8c0,0.4,0.3,0.8,0.8,0.8h36.7c-0.2-0.2-0.5-0.3-0.7-0.5c0,0,0,0,0,0c0,0,0,0,0,0
			c-0.1-0.1-0.2-0.2-0.3-0.2c-0.2-0.2-0.4-0.5-0.4-0.8H661v-19.2h88.5c0.4,0,0.8-0.3,0.8-0.8V72.4h20.3v45.2c0,0.4,0.3,0.8,0.8,0.8
			h88.5v19.2h-29.1c-0.1,0.1-0.2,0.2-0.3,0.3c-0.6,0.4-1.2,0.8-1.7,1.2h31.9c0.4,0,0.8-0.3,0.8-0.8v-20.8
			C861.4,117.1,861.1,116.8,860.6,116.8z"/>
	</g>
	<g>
		<path class="st0" d="M772.1,281.7c-0.1,1.6-0.7,2.9-1.1,4.4c-0.2,0.8,0.1,2.1-0.4,2.9v48.7l-20.3,14.4v-68.6
			c-0.2-0.3-0.4-0.6-0.6-0.9c-0.3-0.5-0.6-1-0.9-1.6v72.6c0,0.3,0.2,0.5,0.4,0.7c0.1,0.1,0.2,0.1,0.3,0.1c0.2,0,0.3,0,0.4-0.1
			l21.8-15.5c0.2-0.1,0.3-0.4,0.3-0.6v-56.6C772.1,281.5,772.1,281.6,772.1,281.7z"/>
	</g>
	<g>
		<path class="st0" d="M772.1,277.6c0,0.1,0,0.2,0,0.2v-5.5c0,0,0,0,0,0c-0.2,0.6-0.6,1.2-0.7,1.8c-0.1,0.5,0.1,0.8,0.2,1.2
			C771.9,276.1,772,276.9,772.1,277.6z"/>
	</g>
	<g>
		<path class="st0" d="M760.1,200.4c-0.4,0-0.7,0.6-0.7,1.4c0,0.8,0.3,1.4,0.7,1.4c0.4,0,0.7-0.6,0.7-1.4
			C760.8,201,760.5,200.4,760.1,200.4z"/>
		<path class="st0" d="M751.4,170.9c-0.5,0-0.9,0.6-0.9,1.3c0,0.7,0.4,1.3,0.9,1.3c0.5,0,0.9-0.6,0.9-1.3
			C752.3,171.5,751.9,170.9,751.4,170.9z"/>
		<path class="st0" d="M740.5,149.2C740.5,149.2,740.5,149.2,740.5,149.2C740.5,149.2,740.5,149.2,740.5,149.2z"/>
		<path class="st0" d="M843.9,131.1c0.3-0.1,4.5-1.8,5-2c0.5-0.2,2.3-0.7,2.2-1.5c-0.1-0.9-1.6-0.2-2.1-0.1
			c-0.5,0.1-4.9,1.6-5.5,1.8c-0.7,0.1-0.1-0.4,0.3-0.6c0.3-0.1,2.7-1.2,4.5-2.1c1.9-0.9,3-1.8,2.4-2.2c-0.6-0.4-2,0.4-3.1,0.7
			c-1.1,0.3-2.6,1.1-3.9,1.5c-2.4,0.7-1.1-0.6-0.5-0.9c0.6-0.3,2.6-1.4,3.4-1.8c0.8-0.4,1.7-0.8,1.3-1.4c-0.4-0.6-1.5,0-2,0.2
			c-0.4,0.2-2.7,1.2-3.7,1.7c-1,0.4-2.8,1.1-3.5,1.2c-0.7,0.1-1.1-0.5-1.1-0.8c0-0.3,1.2-1.2,1.6-1.5c0.4-0.3,1.2-1.9,0.3-2.3
			c-0.7,1.3-3,1.8-3.7,2.4c-0.7,0.6-2.6,2-3.3,3c-0.7,0.9-0.7,2.7-1.4,4.2c-0.7,0.5-11,5.7-13.2,6.7c-2.2,1-6.1,2.3-9.3,3.3
			c-3.2,0.9-5.4,3.4-6,4c-0.5,0.6-4.8,0.2-8.5,0.8c-3.7,0.6-8.8,3.8-10.1,3.7c-3.8-0.9-7.8-1-11.3,0c-2.4,0.7-2.6,3.7-4.9,3.3
			c-2.3-0.3-3.1-2.1-5.1-2.9c0.1-1,3.9,2.9,6.1,1.6c-1.5,0.2-2.9-1.7-3.6-2.7c0.6,0.6,3.5,0.5,3.8-0.6c-2.1,0.4-3.3-1.2-3.8-2.9
			c0.7,0.5,2.7,0.5,2.9-0.3c-1.8,0.1-2.7-1-3.3-2.3c0.4,0.1,1.1,0.5,1.6,1.1c0.7-1.5-2-2.9-3.1-3.6c0.2-0.3,1.4,0,2,0.4
			c-0.6-2.3-3.2-2.1-4.5-3.1c-0.3-0.3,0.3-1,0.3-1l0.9,0.3c0,0-0.5-0.4-0.1-1c0.4-0.6-0.5-0.8-0.5-0.8l1.3-1.4c0,0-1.1,0.7-1.5,0.7
			c-0.4,0-0.3-0.7-0.3-0.7s0.6-0.1,0.5-0.4c-0.4,0.1-0.9,0.1-1.2-0.3c-0.3-0.5-1.3,0-1.8-0.4c-0.3-0.4,0.9-0.9,1.8-0.6
			c-1.2-1.9-6.4-0.9-6.4-0.9s-1.2-0.5-0.8-0.9c-2.7-0.9-5.5,0.9-5.5,0.9s-0.6,0.1-0.4-0.4c-3.1,0.2-4.5,2.7-5,2.7
			c-0.5,0-0.4,0-0.3-0.7c-2.6,1.2-1.7,3.3-1.7,3.7c0,0.6-0.9,0.3-1.2-0.4c-1.6,1.2-0.2,2.8-0.7,4.2c-0.6,0.1-1.1-0.4-1.1-0.4
			s-0.2,1.1,0.4,1.4c0,0.8-1.4,0.4-1.3,1.2c0.1,0.7,0.9,2.2-0.5,2.2c0.4,0.5,1.4,0.9,2.4,0.6c0.6,0.3-1.2,1.7-1.8,1.7
			c0.7,0.4,2.4,0.3,2.4,0.3s0.8,1,0.5,1.3c0.8,0.2,1.5-1.3,1.5-1.3s-0.1,2.4-0.5,2.6c0.7-0.1,1.9-1.6,1.9-1.6s-0.7,1.2,0.7,1.6
			c1.3,0.4,3.3,2,2.6,2c-2.7-1.7-7-1.8-10.1-1.6c-3.9-1.9-6.3-3.9-9.9-4.9c-2-0.6-5.9-0.8-6.1-0.8c-2.1-1.9-5.5-5-8.3-6.1
			c-2.8-1.2-5.6-1.6-8.7-3.2c-3.1-1.6-12.5-6.3-13.7-7.5c0-1.7-1.5-3.2-2.2-4.3c-0.8-1.2-2.2-1.5-3.1-2.4c-0.9-0.9-2.6-1.7-3.2-2.7
			c-1.1,0.2-0.4,1.7-0.2,2.2c0.4,0.9,1.6,1.1,2.1,1.9c0.5,0.9,0.1,1.1-0.5,1c-0.5-0.1-1.1-0.5-2.6-1.4c-1.5-0.9-3.6-2-4.6-2.5
			c-1.3-0.6-1.6,0.3-1,0.8c0.6,0.5,2.3,1.4,2.5,1.6c0.2,0.2,2.8,1.6,3.1,2.2c0.1,0.3,0,0.6-0.6,0.3c-0.5-0.3-2.7-1.6-3.5-2
			c-0.8-0.4-1.4-0.9-3.7-2c-2.3-1.1-1.7,0.9-1.2,1.2c0.5,0.3,3.9,2.4,4.5,2.7c0.6,0.3,2.4,1.3,2.8,1.6c0.4,0.3,0.2,0.9-0.3,0.6
			c-0.6-0.3-1.9-0.6-3-1.3c-1-0.7-2.3-1.6-3.4-2.1c-1.1-0.5-1,0.3-0.9,0.7c0.1,0.4,0.7,0.8,1.5,1.5c0.8,0.8,2.4,1.5,3.7,2.3
			c1.3,0.8,3.4,1.3,2.2,1.6c-1.2,0.4-1.2,0.1-2.3,0.1c-1.1,0-3.2-0.8-3,0c0.2,0.7,1,0.9,2,1.1c1,0.1,4.6,0.7,5.9,1.3
			c1.5,0.8,4.7,1.2,6.4,0.8c2.7,0.6,11.5,8.3,14.8,11.3c3.2,3,7.9,5.3,9.5,6.5c0.9,1.1,2.2,1.8,3,1.6c0,0,6.3,3.5,11,4.5
			c3.7,2.6,7.6,3.1,8.4,3.3c0.7,0.2,1.9,1.7,3.6,2.3c0,0,0.5,0.4,1.7,1.5c0.4,1.8,3.1,7.4,4.3,9.2c0.3,2,0.7,8.2,1.1,10.7
			c0.4,2.5,2,9.2,2.2,10.9c0.1,1.7-0.2,5-1,7.3c-0.8,2.2,0.1,3.7,0,4.7c-0.1,1-1.1,2.8-1.1,5.3c2.9-0.1,5,0.3,7.5,0.7
			c2.6,0.4,4.9-0.5,8.4-1.9c3.6-1.4,11.8-7.1,15.6-6c0.3-3.2-0.9-8.2-1.2-10.1c0.9-3.5,4-10.7,4.1-14.9c0.1-4.2,0.9-9.9,0.9-11.2
			c1-2.1,1.5-4.8,1.5-5.6c2.6-0.9,12.8-3.7,15.3-4.9c2.6-1.2,5.6-3.5,8-4.2c2.4-0.7,5.9-1.9,7.4-2.9c1.5-1,3.8-1,5.9-1.9
			c2-0.9,7.6-4.9,9.2-6c1.7-1.2,7.7-6.2,8.9-6.6c2.3,0.2,4.9-1.2,6.1-1.5c1.2-0.3,2.1-0.7,2.8-0.7c0.5,0,3.2-0.3,4.3-0.4
			c1.1-0.1,2.2-1.1,0.3-1.1c-1.9,0-3.9,0.1-5,0.1C843.1,131.8,843.5,131.3,843.9,131.1z M761.7,155.6l-0.1-1.8l0.8-1.1l-0.7-1.2
			c0,0,0.8-0.9,0.4-1.7c0.6,1-0.2,1.8-0.2,1.8l0.7,1.1l-0.9,1.1l0.1,2.3c0,0-0.9-1.5-1.5-1.1c-0.6,0.4-0.2,1.4,0.7,2.1
			c1.3,1,0.5,2.2,0.5,2.2s0-0.8-1.1-0.7c-0.5,0.6,0.4,2.2-0.2,3.4c-0.4-1.7-2.2-1-2.5-2c-0.5-1.7-1-1.2-1-1.2s-0.1,1-0.6,1.2
			c0.1-0.7-1.2-2.8-1.2-2.8s-0.4,0.3-0.3,1c-0.9-0.6-1.4-2.3-1.4-2.3s-0.2,1-1.5,1.4c0.2-2.2-1.3-2.9-1.8-3s-0.6,1.2-2.1,1.6
			c0.5-0.4,0.3-1.9-0.1-2.5c0,0-0.4,0.8-1.6,0.8c0.5-0.9,0.6-1.8,0-2.7c0.5,0.6,0.8,1.7,0.3,2.6c1,0,1.3-0.9,1.3-0.9
			c0.4,0.6,0.8,2.1,0.3,2.5c1.3-0.4,1.3-1.6,1.8-1.6c0.5,0,2.3,1.1,1.9,3c1.2-0.4,1.4-1.6,1.4-1.6s0.6,1.9,1.4,2.4
			c-0.1-0.6,0.4-0.9,0.4-0.9s1.4,2,1.3,2.7c0.4-0.2,0.4-1.2,0.4-1.2s0.6-0.5,1.1,1.2c0.3,1,2.1,0.3,2.5,2c0.4-1.1-0.5-2.8,0-3.4
			c1.1-0.2,1.3,0.4,1.3,0.4s0.4-0.7-0.9-1.8c-0.8-0.7-1.1-1.7-0.4-2.2C760.9,154.5,761.7,155.6,761.7,155.6z M749.9,148.5
			c0,0,0.3-0.8,0.4-0.3c0.1,0.4,0.5,0.9,0.8,1.4c0.3,0.5,0.8,2.4,1.5,2.9c0.7,0.6-0.2,0.8-0.5,0.8c-0.3,0.1-0.7-0.5-0.8-0.8
			c-0.1-0.3-0.2-0.4-0.9-0.6c-0.7-0.2-1.9-0.6-2.4-1.4c-0.6-0.8-0.6-0.9-0.2-1.4c0.3-0.5,0.2,1.1,1,1.3c0.8,0.2,1.5-0.5,1.6-0.3
			C750.3,150.3,749.9,148.5,749.9,148.5z M758.3,146.7c0.8,0.9-0.2,2.1-1,1.3c-0.8-0.9,0.1-0.6-0.5-1.8c-0.6-1.2-1-2.5-1.5-1.9
			c-0.5,0.6-1.8-1-1-0.8c1.6,0.4,2.2-0.6,2.7,0c0.5,0.6,1.3,0.9,1.2,1.6C758.2,145.6,757.6,145.8,758.3,146.7z M756.4,149
			c0.5-0.2,0.8,1.2,0.8,1.9c0.1,0.7-0.2,1.6-1.1,1c-0.8-0.6-1.8-1.4-2.2-2.1c-0.4-0.7-0.9-1.5-0.3-1.3
			C754.2,148.8,755.9,149.2,756.4,149z M757,154.9c-0.5,0.3-3.3,1.9-2.1,0.9c0.6-0.4,0.8-0.8,1.4-1
			C756.9,154.6,757.5,154.6,757,154.9z M741.8,145.4c-1.3,1.2-2.1-0.3-1-1c1.1-0.6,1.7-2-1-1.5c-1.5,0.3-2.7-1.2-0.1-1.3
			c2.5-0.1,3.2,0,4.6-0.4c2.2-0.7,1.9-1.5,3.1-1.5c-1.3,0.6-1.1,2.7,0.7,1.6c0.9-0.5,3.1-2.1,5.2-4c0.2-0.2-0.5-2.7-0.5-2.8
			c0,0,0.8,2.4,1.7,1.9c2.6-1.2,3.9-2.1,5.5-1.8c1,0.6,0.3,0.9-0.5,1c-0.3,0-1.1,0.3-1.7,0.7c0-0.1,1.2,1.4,1.1,1.6
			c-0.4-0.6-1.5-1.3-1.9-1.2c-1.8,0.9-4,2.2-5.6,4c0,0,2,1.2,1.9,1.2c0,0-2.4-0.7-2.5-0.7C749.3,142.7,744.7,142.7,741.8,145.4z
			 M744.5,147.9c-0.4,0-0.1-0.4,0.4-0.9c0.4-0.4,0.1-2.2,0.6-2.6v-0.2c0-0.2,1.7-0.6,2.4-0.7c0.7-0.1,3.2,0,4.2,0
			c1,0,1.2,0.7,0.6,0.9c-0.6,0.2-2,0.6-2.5,1c-0.5,0.4-0.6,1.3-0.5,1.4c0,0.1-0.5,0.6-1.2,0.5C747.8,147.3,744.9,147.9,744.5,147.9z
			 M688,127.1c-0.1,1-0.9,1-1.5,1.6c-0.6,0.6,1.3,2.1-0.7,2.5c-2,0.4-2.1,0.1-2.1-0.3c0-0.6-0.3-1.5-0.7-2c-0.5-0.7,2-3.2-1-2.4
			c-2.7,0.7,0.1,2.1,0.2,2.3c0.4,1.6-1.4,1.9-1.7,1.6c-0.4-0.3-0.8-1.8-1.2-3.3c-0.4-1.4-0.7-0.9-0.4-1.5c0.3-0.6-0.9-1.5-0.9-1.8
			c0-0.3,1.3,0.4,1.9,0.3c0.6-0.1,0.9-0.3,0.8-0.7c-0.3-0.5,0.3-0.7,0.4-0.4c0.2,0.5,0.5,0.8,1.2,0.9c0.7,0.1,1.5,0.4,1.5-0.6
			c0-1,0.6-0.8-0.3-1.6c-0.9-0.8-1.3-2.3-0.9-2c0.4,0.4,1.1,1.8,2.7,2.3C685.8,122.3,688.2,125.8,688,127.1z M713.2,143.2
			c-0.9-0.6-3.7-3.4-8-4.2c-4.3-0.8,1.1,1.4,3.1,2.3c2,1,5.9,2.7,6.7,4.6c0.7,1.9-1.7,4.1-3.4,3.2c-1.8-0.9-5.5-4.6-9.4-7.5
			c-3.9-2.9-10.5-7.4-12.5-9c-2-1.5-0.6-4.4,0-4c1.8,1.2,10.6,6.4,13,7.4c2.4,1,8.8,2.4,11.9,4.9
			C717.7,143.5,714.1,143.8,713.2,143.2z M749.6,210.9c-0.4,0.3-5.1-0.4-5.3-0.6c-0.2-0.3,1.1-3.1,2.5-4.3
			C747.9,204.9,750,210.6,749.6,210.9z M749.3,205.2c-1.8-0.1-1.8-0.3-2.5-1.3c-0.7-1-1.1-4.9-0.2-5c0.9-0.1,1,2.5,3.8,2.8
			C751.3,201.8,751.1,205.2,749.3,205.2z M771.5,170.1c-0.8,2.1,0.9,2.2-2,4.6c-2.9,2.4-1.3,2.8-0.3,6.3c0.9,3.5-0.3,2.6-3.6,7.6
			c-3.4,5-1.9,5.6-1.6,10.3c0.3,4.7,0.5,5.2-0.7,6.3c-1.2,1.1-3.4,1.7-3,2.4c0.4,0.6-4,3.5-7.4,1.8c-3.4-1.7,5.1-2.5,5-4.2
			c-0.2-1.7-4.2-1.3-5-2.4c-0.8-1,3.1-3,3.1-3s1.8-1.2-1.7-1c-3.4,0.2-2.1-4.2-1.2-5.9c0.9-1.7,6.6-0.5,5.7-2.3
			c-0.9-1.8-5-0.3-6-1.5c-1-1.3,0-4.5-0.2-6c0,0-4.4,2.1-2.6,4.1c1.6,1.9,1.9,4.8,0.1,4.9c-1.1,0.1-1,1.5-0.9,2.3
			c0,0.5-0.3,0.3-0.4,0.2c-2.9-3.7-2.3-5.1-2.5-7.7c-0.2-2.3-1.2-4.3-0.8-4.5c0.4-0.2,2.9,0.9,2.9,0.5c0-0.4-2.6-1.6-3-1.8
			c-0.5-0.2-0.1-0.6-0.2-0.9c-0.1-0.6-0.5-0.5-0.3-0.8c0.2-0.3,3.3,0.8,3.4,0.4c0-0.3-3.2-1.2-3.5-1.7c-0.3-0.4-0.6-1.8-0.4-2.1
			c0.2-0.2,3.6,1.4,3.7,1.2c0.2-0.4-3.7-2-3.9-2.3c-0.2-0.4-0.1-2.4,0.4-4.4c0.8-3.5-1.1-0.9-1.6-1.1c-0.5-0.2-1-1.5-2.3-3.8
			c-1.3-2.2-1.8-3.4-0.5-3.4c1.3,0.1,5.4,4.5,6,5.2c0.7,0.9,1.1,1.4,0.4-0.3c-1.1-3-4.3-5.3-6.5-6.8c-2-1.4-3.3-2.7-5.1-2.7
			c-7.1-0.2-7.7-3.6-9.7-3.6c-2,0-6.8-2.2-8.5-3.4c-1.7-1.2,0.5-1.3,1.8-0.9c1.4,0.3,9.2,3.3,13.3,4.7c4.1,1.4,8.8,2,7,0.9
			c-1.8-1.1-4.8-1.5-7.8-2.7c-3.1-1.2-9.8-3.1-11.8-3.8c-2-0.7-2.6-1.9-2.5-4c2.8-0.9,14,2.9,16.3,4.5c2.3,1.6,1.2,2,4,1.4
			c2.8-0.6,5.8,0.1,8.4,1.4c0.6,0.3-0.3,2.7,0.4,3.1c0.7,0.4,1.5,2.3,3.2,1.4c1.8-0.9,3.1,2,5.4,3c2.2,1,2.1,1.8,3.5,2.2
			c1.5,0.4,1,1.3,1,2.9c0,1.6,0.9,13,0.8,17.8c-0.1,4.7,0.4,12.3,0.7,14c0.2,1.5,0.5,1.4,0.5,0.2c0-4.5,0.4-14.1,0.2-16.1
			c-0.3-2.6,0-8.9-0.7-13.6c-0.7-4.7,1.6-6.2,5.3-6.8c3.6-0.6,4.6,1.5,7,4.6C775,167.8,772.3,168,771.5,170.1z M782.3,153
			c-1.8,0.7-4.4,6.3-6.8,8.1c-1.9,1.5-3.4-2.2-2.8-3.2c0.6-1,2.9-3,2.8-5c-0.1-2.1-0.7-3.1,1.6-3c2.3,0.1,5.9,0,6.1,0.4
			C783.4,150.5,784.1,152.3,782.3,153z M785.6,151.5c3.4-2.2,6-5.7,16.8-5.3c0,0,1.1,2.3,0,2.3c-5,0-11.4,5.2-13.6,5.6
			C786.5,154.5,785.6,151.5,785.6,151.5z M827.2,138.6c-2.2,1.2-8.9,7.1-10.7,8.6c-1.7,1.5-3.9,0.8-2.7-0.1c1.2-0.9,4.5-6.5,1.6-3.2
			c-2.9,3.4-5.4,5.4-8.2,6.5c-2.8,1.1-9,3.6-11.5,4.9c-2.5,1.3-7.4,1.4-6.5,0.9c2.7-1.4,10.5-5.5,12.8-6c2.3-0.5,4.9-2.4,4.7-4.1
			c-0.1-1.7-1.8,0.1-2.2-1.1c-0.5-1.2,14.2-6.9,19.1-8.7c4.9-1.8,5.6-3.6,6.9-4.6c1.3-1,1.9,1.3,1.9,1.5c0,0.3-4.5,2.7-6,4.2
			c0.5,0.4,5.7-3.4,6.3-3.4C833.6,134.2,829.5,137.3,827.2,138.6z M834.9,130.7c0.9,0.3-1.9,1.3-2.3,0.3c-0.4-1.1-0.7-2.1,0.6-3.2
			c1.4-1.1,1.9-2.9,2.7-3.3c0.8-0.3,0.7,0.2,0.7,0.8c0,0.3,0,0.5,0,0.7c0,0.7-0.1,0.9-0.7,2C835,129.4,834,130.4,834.9,130.7z
			 M840.7,132.8c-1,0.6-4.9,0.3-5.2,0.6c-0.4,0.2,0.5-1.1,1.1-1.9c1.3-1.8,3.2-0.5,3.5-1.2c0.3-0.7,0.6-1.5,1.2-0.5
			C841.8,130.9,841.7,132.2,840.7,132.8z"/>
		<path class="st0" d="M765.7,227.4c-0.2,0.1-3.8,5.4-4.1,5.7c-0.3,0.4-0.5,1-1.6,0.8c-1-0.2-3.4-1.9-5.9-4c-2.5-2.1-8.3-6.7-9-6
			c-0.7,0.7-0.9,1.2-2.2,1.9c0,6.1,0.8,9.9,1.8,15.1c1,5.1,2.6,10.7,3.1,13.2c0.4,2.5-0.2,8.3,0,9.8c0.2,1.5-0.6,8.6-0.3,12.2
			c0.4,3.6,4.2,18.3,5.5,22.2c1.3,3.9,1.2,5.5,1.1,6.4c-0.1,0.9-0.6,3.3-0.5,3.7c0.1,0.4,0.9,1.3,0.6,1.9c-0.2,0.6-0.4,10.4,0,11.6
			c0.4,1.2,0.2,2,0.6,2.8c0.3,0.6,0,1.5,0,2.1c0,0.7-0.4,3.4-0.5,4c-0.1,0.6-0.4,1.6,1.3,1.7c1.7,0.1,1.9-0.6,1.9-0.6
			s0.1,0.9,0.9,0.8c0.4-0.1,0.4-0.1,2.3-0.2c0,0,1-0.3,1.4-0.5c0.4-0.3,1.5-0.8,1.5-0.8l1.2-1c0,0,1.5-1.1,1.3-5.1
			c-0.2-4,0.5-8.3,0.3-9c-0.3-0.7,0.5-2.7,0.9-3.2s-0.8-2.5-0.9-4.2c-0.1-1.7,1.4-8.2,2.8-12.4c0.9-2.8,3-11.7,3.4-16.9
			c0.3-3.7-1.9-9.6-1.9-10.9c0-1.3,1.2-6.5,2-14.6c0.8-8.1,2.2-16.8,1.6-23.7C773,228.8,766.5,227.5,765.7,227.4z M755.7,309.6
			c0-1.2,1.8-3.9,0-7.9c-1.8-3.9-2.9-13-5.1-18.1c-2.2-5.1-0.9-13.7-1-14.5s1.3-9.1,1.2-11c-0.2-1.9,2.3-3.1,0-6.5
			c-2.3-3.4-5.8-21.5-6-24.8c-0.2-4.3,11.1,9.9,11.4,11.8c0.3,1.9,2.7,13.5,3,14.7c0.3,1.2-0.6,5.8-1.5,8c-0.9,2.1-2.7,2.4-4.3,2.6
			c-1.6,0.2,1.8,2.5,1.6,4c-0.2,1.5-1.6,6.3-1.2,11c0.3,4.7,2.8,17.8,3,19.5s2,8.7,2.8,11.4c0.8,2.6,0.3,4.6,1.8,8
			c1.5,3.4,1.6,3.3,2,5.4c0.3,1.8,1.2,3.4,0.9,4.6c-0.1,0.5-0.6,0.8-0.9,0.8c-0.4,0.1-1.1,0.3-1.2-0.5c-0.1-0.9-0.1-2.6-0.6-3.2
			c-0.2-0.3-0.2-0.1-0.3,0.3c-0.3,0.9,0.1,2.5-0.4,2.4c-0.9-0.1-0.7-0.8-0.8-1.9c0-0.3-0.6-0.6-0.6-0.3c-0.1,0.8,0,2.2-0.5,1.8
			c-0.7-0.6-0.2-1.4-0.6-2.5c-0.2-0.4-0.4-0.3-0.5,0c-0.1,0.4-0.1,1.2-0.6,0.9c-0.5-0.2-0.4-0.9-0.5-1.2c-0.1-0.2-0.3-0.3-0.4-0.2
			c-0.4,0.2-0.5,0.9-0.8,0c-0.3-0.8,0-3.9,0.2-5.1C755.9,317.7,755.7,310.8,755.7,309.6z M757,329.6c-0.1,1.4-0.6,1.9-1.3,1.7
			c-0.7-0.1-0.1-2.6,0-3.5C755.8,327.3,757.1,328.2,757,329.6z M758.6,331.9c-0.7,0.5-0.3-1.3-0.3-2.1c0,0,1-0.5,1,0
			C759.3,330.3,759.3,331.4,758.6,331.9z M760.4,331.8c-0.4-0.2-0.3-1.1-0.2-1.6c0.1-0.3,0.9-0.9,0.9,0
			C761.2,330.9,760.7,332,760.4,331.8z M762.2,331.5c-0.2-0.1-0.2-0.7-0.1-1.1c0.1-0.2,0.6-0.6,0.6,0
			C762.7,331,762.4,331.7,762.2,331.5z M765.5,328.6c-0.1,0.2-0.8,0.8-1.8,1.1c-1.1,0.4-1.4,0.1-1.8-0.2c-0.6-0.5-1.1-0.1-1.4-0.5
			c-0.5-0.7-1.2-0.4-1.7-0.8c-0.6-0.5-1.7-1-2-1.5c-0.3-0.5-1.1-0.9-1.3-1.3l-0.2-0.3c0.2,0.3,1.2,0.9,1.5,1.3
			c0.3,0.4,1.6,1.2,1.8,1.4c0.2,0.2,1.3,0.4,1.8,0.8c0.4,0.4,0.9,0.1,1.2,0.4c0.3,0.3,0.9,0.8,1.8,0.6c0.8-0.3,1.8-0.9,1.8-1.1
			s0.1-1,0-2c-0.1-1-0.5-3.5-0.5-4.3c-0.1-0.8-0.5-1.7-1.1-2.9c-0.5-1.2-2.4-5.5-2.4-6.6c0-1.2,0.1-3.4-0.1-4
			c-0.2-0.6-1.1-1.9-1-2.7c0.1-0.8,0.2-7.6,0.4-10.7c0.2-3.1,0.1-7.4,0-12.8c-0.1-5.4,0.1-9.8,0-10.7c-0.1-0.8,0.2-3.7,0.6-6
			c0.5-2.4-0.5-5.1-0.3-7.2c0.2-2.1-0.5-7.7-0.4-9.6c0.1-1.9-0.6-6.4-0.4-9.2c0.1-2.8,0.1-5.2,0.1-5.5l0.7-0.4c0,0.3-0.3,3-0.4,5.8
			c-0.1,2.8,0.4,7.3,0.3,9.2c-0.1,1.9,0.6,7.6,0.4,9.6c-0.2,2.1,0.9,4.8,0.4,7.1c-0.5,2.4-0.9,5.2-0.8,6.1c0.1,0.8-0.1,5.3,0,10.7
			c0.1,5.4,0.2,9.7,0,12.8c-0.2,3-0.3,9.9-0.4,10.7c-0.1,0.8,0.8,2.1,1,2.7c0.2,0.6,0.1,2.8,0.1,4c0,1.2,1.9,5.5,2.4,6.6
			c0.5,1.2,1,2.1,1.1,2.9c0.1,0.8,0.5,3.3,0.5,4.3C765.6,327.6,765.6,328.4,765.5,328.6z M770.4,287.5c-0.7,2-0.1-5.1-0.3-6.4
			c-0.2-1.5-2,0.4-1.9,1.8c0.2,2.8-0.5,6.4-0.9,7.9c-0.7,2.2-3.8,15.2-4,17c-0.2,1.8,0.3,5.6,0.7,6.7c0.3,1.2-0.3,1.6-0.6,0.6
			c-0.5-1.9-1.2-4.8-1-6.9c0.5-5.8,4.3-24,4.3-28.6c0-1.7,1.9-1,2.6-1.4c1-0.5,0.8-5.5,1.5-4.7C771.4,274.3,772.7,280.9,770.4,287.5
			z M772.6,243.2c0,3.1-2.4,12.1-2.4,14.6c0,2.6,0.3,3.6,0,4.7c-0.3,1.2-1.6,4.5-1.8,7.3c-0.1,2.8,0.9,2.8,0,3.6
			c-0.9,0.8-0.7-3.4-3.1-5c-3.7-2.4-2.5-16.2-2.7-19.4c-0.3-3.2,2.4-6.8,2.7-10c0.3-3.2-3.6,6.8-3.6,6c0-0.8,0-7.2,0.8-10.6
			c0.8-3.4,3.1-5.8,4.7-5.8c1.6,0,5.1,1,5.3,2.7C772.7,233.1,772.6,240.1,772.6,243.2z"/>
		<path class="st0" d="M778.8,215.4l0.3-5.7l-2-3.9l0.7-0.5l-1.1-1.8c0,0-0.6,0.4-1.4,0.7c-3.1-0.3-15.5,6.5-21.7,8.2
			c-0.8,0.2-1.7,0-2.9-0.2c-3.4-0.4-7.6-0.8-7.9-0.3c-0.6-0.1,0.6-3.1,0.6-3.1c-1.5,0.8-3.3,2.2-3.4,3.3c-0.1,1.1,0.9,2,0.9,2.5
			c0,0.5-1,1.7-0.9,2.3c0.1,0.6,0.9,1.7,0.7,2.1c-0.2,0.4-4.9,5.5-5,7.4c-0.1,1.9,0.4,1.7,0.4,2.1c0,0.4-0.7,2.2-0.4,3.3
			c0.3,1.1,0.8,0.8,0.8,1c0,0.3-0.7,2.3-0.1,2.9c0.6,0.6,3.1-0.4,3.1,2.5c0,1.5,2.1,0.8,2.1,0.8l0.7,0.9l1.3-0.4
			c0,0-2.2-12.8-0.7-14.3c1.9-0.8,1.7-3,3.7-1.7c2,1.3,12.8,9.8,12.8,9.8c0.8,0.2,1.5-0.3,1.5-0.3l4.5-6.2c0,0,8.5,1.5,10.7,3.8
			c1.8-0.6,1.4-2,1.4-2l1.4-0.3l0.3-6.4l0.9-0.9l-0.8-5.3L778.8,215.4z M741.5,234.9l0.3,3.6l-1.6-0.5l-0.2-1.9l-2.7-1.2v-3.3
			l4.1-3.7l0.4,1.8l-2.9,3.6L741.5,234.9z M774.7,228.7c0,0-11.4-4-18.3-6c1.8,1.2,6.7,4.4,6.3,6c-0.4,0.7-1.1,0.5-1.1,0.5
			s-4-4.8-8.2-7.2l-2,1.4l9.1,6.6l-1,1.8c-0.3-0.1-8.3-6.7-11-8.2c-0.6-0.3-0.8-0.6-0.9-0.7l-2.3-0.8l-8.1,8l-0.4-1.9l6.5-6.9
			l-0.8-1.2l-5.5,6.8l-0.2-1.5l4.7-7.1l-0.7-2l1.3-2.5l-1.3-1.3l0.7-1.2l0.7,0.9c0,0,7.2,0.7,9.4,0.9c1.4,0.1,2.6-0.3,3.1-0.5
			c0.1,0,0.1-0.1,0.2-0.1l0,0c4.2-1.8,17.6-7.5,19.5-7.7c0.1,0.2,0.3,0.5-0.2,0.8c-2.8,1.6-13.6,4.7-18.9,7.7l0.1,0.1l19.5-6.5v2.1
			l-16.2,5c5.4-0.6,14.8-1.7,17-2.3c0.2,1.8-11.6,3.7-17.5,4.5c5.1-0.2,16.7-0.6,16.7-0.6l-2.1,1.5l-11.9,1.4l14.7,1v1.5l-16.4-0.8
			c6.5,1.4,17.9,4,18.4,6C775.9,228.1,774.7,228.7,774.7,228.7z"/>
	</g>
</g>
<path class="st0" d="M55.2,171.2c9-2,20.3-5.8,33.8-11.4c-0.3-1.5-0.5-3-0.6-4.6c-0.1-1.6-0.2-3.2-0.4-4.7
	c15.5-1.7,27.3-6.4,35.2-14.2c14.7,5.5,29.3,9.5,43.5,12l-12.6,16.8l-42.6-13.6l1.5,73.8c-5.2,1.2-12.1,3.9-20.9,8.3
	c9.6,6.5,21.1,9.5,34.5,8.8c13.4-0.6,26.7-2.9,39.8-6.9c-2.1,3.7-4.4,7.3-6.6,10.8c-2.3,3.5-4.5,7-6.7,10.5
	c-18.8,4.5-37.5,4.4-56-0.3c-18.5-4.7-31.8-14.7-39.8-30.1c-4.2-8.2-6.2-17.3-6.2-27.4C51.2,189.1,52.5,179.8,55.2,171.2z M89,163.2
	c-8.7,6.2-14.1,13.9-16.2,23.2c-2.1,9.3-0.8,18.7,3.7,28.2c2.7,6.1,6.3,11.3,11,15.4C89.7,209.2,90.2,186.9,89,163.2z"/>
<path class="st0" d="M184.1,197.7c2.2-0.3,3.8-0.8,4.9-1.5c3.2-2.2,6-4.8,8.5-7.7c3.6,3.8,7.7,7.2,12.1,10.1
	c-4.1,3.4-8.2,7.2-12.1,11.4c-1.3-1.3-2.5-2.6-3.8-3.9c-1.3-1.3-2.6-2.4-4.1-3.4c-0.8-0.4-2-1-3.7-1.8c0.3,1.3,0.4,2.3,0.4,2.8
	c-0.1,5.6-0.3,11.2-0.3,16.8c-0.1,5.5-0.2,11.1-0.3,16.8c0,0.9-0.2,1.9-0.5,3c-0.3,1.1-0.5,2.1-0.7,3.1c1.5,0.8,3.2,1.7,5.1,2.8
	c1.9,1,3.8,1.8,5.6,2.2c2.9,0.8,5,0.7,6.3-0.1c0.9-0.6,1.7-0.7,2.3-0.3c0.6,0.5,0.5,1-0.3,1.5c-5.3,3.6-9.7,7.4-13.4,11.4
	c-7.5-4.2-15.2-7.4-23.2-9.4c1.5-4.7,2.3-11.9,2.2-21.6c-0.1-9.7,0-16.9,0.1-21.4c0.1-2-0.4-3.7-1.6-4.9c-1.2-1.3-2.7-1.6-4.5-1
	c-1.2,0.4-2,0.2-2.6-0.7c-0.6-0.9-0.3-1.7,0.8-2.6l13.6-10.1l5.8,4.5C182.2,195.2,183.4,196.5,184.1,197.7z"/>
<path class="st0" d="M221.2,187.9l5.3,5c2.5,2.4,3.6,5.7,3.3,9.9l-1,40.7c0,4.2,1.6,5.8,4.7,4.8c2-0.6,3.3-0.5,3.9,0.2
	c0.6,0.7,0,1.7-1.6,3l-12.6,9.4l-13.4-10.8c1.7-3.4,2.5-7.2,2.5-11.4l0.9-31.3c0.2-5-1.5-7-5-5.9c-1.2,0.4-2,0.2-2.6-0.7
	c-0.6-0.9-0.3-1.8,0.9-2.6L221.2,187.9z M214.2,179.2l11.6-8.6c0.8-0.6,2.1,0,3.8,1.6c1.7,1.7,2.1,2.8,1.2,3.4l-12.2,7.3
	L214.2,179.2z"/>
<path class="st0" d="M233.6,199.4c12.2-2.7,22.5-6.8,31.1-12.3c5.5,5.6,12.6,10.2,21.2,13.7c-4.5,3.1-7,4.8-7.4,5.2
	c-0.4,0.4-2.4,2.4-6,6.1l15.2,8.7c-2.9,9.4-3.2,19-0.8,28.7c-11-0.1-22.3,3.7-33.9,11.4c-5.5-5.5-11.5-9.6-18.1-12.3l-1-0.4l13-13.7
	c-4.5-3.1-9-5.1-13.5-6.1c0.9-4.6,1.4-9.4,1.6-14.2C235.2,209.3,234.7,204.4,233.6,199.4z M261.9,223.6l-14.3,15.4
	c5,2.6,10.2,5.9,15.6,9.9c1.5,1.2,2.9,1.5,4.2,1c1.3-0.5,2-1.6,2.3-3.3l0.2-18.9L261.9,223.6z M270.1,210.3c-6-4.2-11-8.2-15-11.8
	c-2.7-2.4-4.1-2-4.1,1.3l-0.2,20.6c2.3,1.2,4.4,2.5,6.1,4L270.1,210.3z"/>
<path class="st0" d="M305.7,200.1l-0.5,39c0,2,0.2,3.5,0.6,4.6c0.4,1.1,1.5,2.6,3.2,4.5c1.7,1.9,4.1,1.6,7-0.8
	c0.6-0.4,1.2-0.5,2-0.1c0.8,0.4,0.9,0.7,0.5,1l-16.2,12.6c-2.4-2.5-4.5-4.2-6.4-5c-1.9-0.8-5.3-2.3-10.5-4.4c1.1-2.7,2-5.5,2.5-8.3
	c0.6-2.8,1-7.9,1.4-15.5V200l-5.4-0.2c-1.2,0-1.7-0.5-1.6-1.5c0.1-1,0.8-1.6,2.1-1.9c2.9-0.6,6.3-2.9,10.3-6.7s6.3-6.7,6.9-8.6
	c0.6-1.8,1.6-2.7,3.1-2.5s2.2,0.7,2.1,1.8l-1,12.5v0.4h12.4v6.9H305.7z"/>
<path class="st0" d="M314.7,199.7c3.5,0.1,9.1-1.7,16.8-5.3c7.8-3.7,12.6-6.3,14.4-7.7c1.9,2.5,5,4.8,9.3,6.9
	c4.3,2.1,9.3,4.2,14.9,6.2c-1.1,2.9-1.8,5.7-2.3,8.3s-0.7,7.6-0.7,15.1c-0.1,7.5,0.1,12.9,0.3,16c0.3,3.1,1.1,6,2.7,8.7
	c-3.3-0.2-8.8,1.5-16.6,5.1c-7.8,3.6-12.7,6.2-14.7,8c-1.9-2.5-5.1-4.8-9.4-6.9c-4.3-2.2-9.2-4.2-14.8-6.3c1-2.9,1.8-5.6,2.2-8.1
	s0.7-7.6,0.8-15.1c0-7.5-0.1-12.8-0.3-15.9C317.1,205.4,316.2,202.5,314.7,199.7z M333.9,198c-0.1,1.5-0.2,3.4-0.1,5.8v32.8
	c0,0.9,0,1.8,0.2,2.7c0.1,0.9,0,1.9-0.3,2.8c1.7,0.8,4.4,1.9,8.1,3.5c3.7,1.6,6.4,2.8,7.9,3.6c0.5,0,0.8,0,1.1,0.1
	c0.1-1.4,0.1-3.4,0.1-5.9l-0.1-32.7c0-1-0.1-1.9-0.2-2.8c-0.1-0.9,0-1.9,0.5-2.8c-1.7-0.7-4.4-1.9-8.2-3.5c-3.7-1.6-6.3-2.8-7.9-3.6
	c-0.3,0-0.5,0-0.6-0.1C334.3,198.1,334.1,198,333.9,198z"/>
<path class="st0" d="M410.3,152.7c2.5-2.8,5.2-5.6,7.9-8.4c2.7-2.8,5.5-5.6,8.2-8.4c7.4,0.9,14.7,1.6,21.7,2.1
	c7.1,0.5,13.4,0.4,19-0.3c-2.8,11-4.1,26.5-4,46.3c0.1,19.9,0,38.3-0.2,55.4c1.6,0,3.2,0,4.8,0s3.2,0,4.7,0
	c0.2-14,0.2-27.9,0.3-41.8c0-13.9,0.2-27.8,0.4-41.7c8.5-4.4,14-11.4,16.5-20.9c41.1,0.9,58.2,18.6,51.2,53.3l-25.2,6.5
	c3.3,3.2,6.3,6.4,9,9.7c2.7,3.3,4.6,6.8,5.8,10.5c2.3,7.9,5.7,14.8,10.1,20.6c4.4,5.9,8.7,8.3,12.9,7.4c1.6-0.3,3.2,0.2,4.8,1.5
	c1.6,1.3,1,2.6-1.8,3.9c-5.5,3.3-10.5,7.2-14.7,11.8c-7.9-0.9-14-4.9-18.2-12.3c-4.2-7.3-8.3-15.5-12.4-24.6
	c-5.3-10.8-13.5-19.2-24.7-25.2c6-3.4,12.7-7.5,20-12.2c1.2,1.2,2.4,2.3,3.5,3.4c1.1,1.1,2.2,2.1,3.3,3.2c2.3-1.1,3.7-2.8,4.1-5.1
	c0.4-2.3,0.7-5.7,0.9-10.2c0-8.2-2.4-14.3-7.1-18.3c-4.8-4.1-14.4-4.8-28.8-2.2c0,16.9,0,33.8,0,50.8s0,33.9,0,50.8
	c-13.1-3.7-27.7-4.1-43.7-1c1.6-17.1,2.8-34,3.6-50.9c0.8-16.8,0.2-33.7-1.7-50.7C430.2,155.6,420.1,154.5,410.3,152.7z"/>
<path class="st0" d="M554.1,199.5c5.6,0.4,10.8-0.7,15.8-3.1c5-2.4,9-5.4,12.2-9l17.8,12.4l-26.4,22.5l-0.2,13.6
	c0,1.7-0.3,3.5-0.9,5.5c1.7,0.7,3.5,1.7,5.5,2.9c2,1.2,3.8,2.2,5.4,3.1c3.6,1.7,6.5,1.7,8.7,0c0.4-0.4,1-0.5,1.7-0.1
	c0.8,0.4,0.9,0.7,0.5,1L578.2,261c-2.4-2.5-5.8-4.7-10.2-6.6c-4.4-1.9-9.1-3.8-14.2-5.8c1.1-2.9,1.9-5.8,2.5-8.5s0.9-7.9,1.1-15.5
	c0-7.5-0.1-12.9-0.6-16.1C556.4,205.3,555.5,202.3,554.1,199.5z M585.6,207.4c-3.3-2.3-6.1-4.9-8.4-7.8c-1.2-1.3-2.1-1.6-2.7-0.8
	c-0.6,0.7-1,1.6-1.1,2.5v16.9L585.6,207.4z"/>
<path class="st0" d="M622,201.5l11.2-11.2c5.2,0.8,10.6,1.2,16,1.3c5.4,0.1,10.9-0.1,16.5-0.4c-5,14.2-9.3,28.4-12.7,42.6
	c-3.4,14.2-6.5,28.4-9.2,42.6c-5.1,1-9.8,2.7-14.1,4.9c-4.3,2.2-8.5,4.8-12.7,7.6c-6.8-4.3-14-7.6-21.7-10c2.5-2,5-4,7.6-5.9
	c2.5-1.9,5.1-3.8,7.7-5.8c1.8,3.3,6.2,6.3,13.2,9.2c2.4,0.9,3.7,0.4,4.1-1.6c0.6-2.6,1.1-5.1,1.5-7.3c0.5-2.3,1-4.8,1.6-7.6
	c-1.8-1-5.7-2.4-11.8-4.2c-6.1-1.7-10.8-3-14-3.7c-2.1-0.5-2.5-1.2-1.3-2.1c1.2-0.9,1.9-2.2,2-4c0-1.1,0.2-4.2,0.6-9.3
	s0.6-10.4,0.7-16c0.1-5.5-0.3-10.3-1.1-14.4s-2.5-5.6-5-4.6c-1.4,0.6-2.5,0.4-3.3-0.5s-0.2-1.8,1.9-2.8c2.8-1.2,5.2-2.7,7.2-4.4
	c2-1.7,3.8-3.5,5.4-5.2c1.7,1.7,3.9,3.7,6.6,6C620.2,195.9,621.3,198.2,622,201.5z M633.9,248.2c1.8-7.5,3.6-15,5.4-22.3
	c1.8-7.3,4-14.8,6.7-22.5c-3.9,0.2-7.9,0.3-11.8,0.4c-3.9,0.1-7.8,0.3-11.7,0.5c0.7,5.8,0.7,12.6-0.1,20.4
	c-0.8,7.8-1.2,13.4-1.2,16.7c0,1.7,0.4,2.7,1.3,3c1.5,0.5,3.3,1,5.4,1.5C630.1,246.4,632.1,247.2,633.9,248.2z"/>
<path class="st0" d="M113.4,275.2l-2.3,3.7l-0.5-0.2c0.1-0.3,0.1-0.6,0.1-0.7c0-0.3-0.5-0.6-1.4-1c-2-0.8-4.3-1.3-7.1-1.3
	c-2.3,0-4.2,0.3-5.7,1c-1.6,0.7-2.4,1.6-2.4,2.8c0,0.5,0.2,1,0.6,1.5c0.4,0.4,0.9,0.7,1.6,0.9c0.7,0.2,1.4,0.3,2.2,0.4
	c0.8,0.1,2.4,0.1,5,0.2c2.1,0.1,3.8,0.2,4.9,0.3c1.1,0.2,2,0.4,2.8,0.8c0.8,0.4,1.5,0.9,2,1.6c0.5,0.7,0.7,1.5,0.7,2.3
	c0,1.7-0.9,3.1-2.7,4.2c-2.2,1.2-5,1.8-8.6,1.8c-1.8,0-3.6-0.2-5.5-0.6c-1.9-0.4-3.7-1-5.4-1.8c-0.2-0.1-0.4-0.2-0.5-0.2
	c-0.2,0-0.5,0.2-1,0.6l-0.5-0.3l2.7-3.6l0.5,0.2c0,0.1-0.1,0.2-0.1,0.3c-0.1,0.2-0.1,0.3-0.1,0.4c0,0.3,0.7,0.8,2.2,1.4
	c2.4,1,5,1.5,7.6,1.5c2.4,0,4.4-0.3,6-1c0.8-0.3,1.4-0.7,1.8-1.3c0.5-0.5,0.7-1.1,0.7-1.7c0-0.5-0.2-1-0.6-1.5
	c-0.4-0.4-0.9-0.7-1.5-0.9c-0.6-0.2-1.2-0.3-1.9-0.3c-0.7-0.1-2.1-0.1-4-0.2c-2.3-0.1-4-0.2-5-0.3c-1-0.1-2-0.3-2.8-0.5
	c-1.1-0.3-2-0.9-2.7-1.6c-0.7-0.8-1-1.6-1-2.7c0-1.8,1-3.2,3.1-4.3c2.1-1.1,4.8-1.6,8-1.6c3,0,6,0.5,9,1.6c0.5,0.1,0.7,0.2,0.8,0.2
	c0.2,0,0.5-0.2,0.8-0.6L113.4,275.2z"/>
<path class="st0" d="M121.8,284.3v7h14.7c0.6,0,1-0.1,1.3-0.2c0.2-0.1,0.4-0.4,0.6-0.9h0.6v4h-0.6c-0.1-0.4-0.3-0.7-0.6-0.9
	c-0.2-0.1-0.7-0.2-1.3-0.2h-19.1v-0.5c0.6-0.1,0.9-0.3,1.1-0.5c0.2-0.2,0.3-0.5,0.3-1v-15.1c0-0.5-0.1-0.8-0.3-1
	c-0.2-0.2-0.5-0.3-1.1-0.5v-0.5h19c0.6,0,1-0.1,1.3-0.2c0.2-0.1,0.4-0.4,0.6-0.9h0.6v4h-0.6c-0.1-0.4-0.3-0.7-0.6-0.9
	c-0.2-0.1-0.7-0.2-1.3-0.2h-14.6v6.4h9.3c0.6,0,1-0.1,1.3-0.2c0.2-0.1,0.4-0.4,0.6-0.9h0.6v4h-0.6c-0.1-0.4-0.3-0.7-0.6-0.9
	c-0.2-0.1-0.7-0.2-1.2-0.2H121.8z"/>
<path class="st0" d="M147.6,284.6v6.7c0,0.5,0.1,0.8,0.3,1c0.2,0.2,0.5,0.4,1.1,0.5v0.5h-5.8v-0.5c0.6-0.1,0.9-0.3,1.1-0.5
	c0.2-0.2,0.3-0.5,0.3-1v-15.1c0-0.5-0.1-0.8-0.3-1c-0.2-0.2-0.5-0.3-1.1-0.5v-0.5h14.1c1.6,0,2.9,0.1,3.9,0.3c1,0.2,1.9,0.5,2.6,0.9
	c1.6,0.9,2.5,2.3,2.5,4.1c0,1.5-0.6,2.6-1.7,3.4c-1.1,0.8-2.8,1.3-5.1,1.5l6,7.5c0.2,0.3,0.4,0.4,0.6,0.5c0.2,0.1,0.6,0.2,1.1,0.2
	v0.5h-5.9v-0.5c0.6-0.1,0.8-0.2,0.8-0.4c0-0.1-0.2-0.4-0.5-0.8l-5.5-6.9H147.6z M147.6,282.8h9c1.5,0,2.6,0,3.3-0.1
	c0.7-0.1,1.3-0.2,1.9-0.5c1.1-0.5,1.7-1.4,1.7-2.6c0-1.2-0.5-2.1-1.6-2.7c-1-0.6-2.6-0.8-4.9-0.8h-9.4V282.8z"/>
<path class="st0" d="M180.5,290.5l7.6-13.9c0.2-0.4,0.3-0.7,0.3-1c0-0.5-0.4-0.8-1.3-0.9v-0.5h5.9v0.5c-0.6,0.1-1.1,0.3-1.3,0.6
	c-0.3,0.3-0.7,0.9-1.2,1.9l-7.3,13.2c-0.3,0.6-0.5,1.1-0.5,1.4c0,0.5,0.4,0.8,1.2,0.9v0.5h-7.3v-0.5c0.8-0.1,1.2-0.5,1.2-0.9
	c0-0.3-0.2-0.8-0.5-1.4l-7.5-13.2c-0.6-1-1-1.7-1.3-1.9c-0.3-0.3-0.7-0.5-1.3-0.6v-0.5h6.6v0.5c-0.8,0.1-1.3,0.4-1.3,0.9
	c0,0.3,0.1,0.6,0.3,1L180.5,290.5z"/>
<path class="st0" d="M196.9,291.3v-15.1c0-0.5-0.1-0.8-0.3-1c-0.2-0.2-0.5-0.3-1.1-0.5v-0.5h5.8v0.5c-0.5,0.1-0.9,0.3-1.1,0.5
	c-0.2,0.2-0.3,0.5-0.3,1v15.1c0,0.5,0.1,0.8,0.3,1c0.2,0.2,0.5,0.4,1.1,0.5v0.5h-5.8v-0.5c0.5-0.1,0.9-0.3,1.1-0.5
	C196.8,292.1,196.9,291.7,196.9,291.3z"/>
<path class="st0" d="M231.7,275.6l-2.7,3.6l-0.5-0.3c0.1-0.3,0.1-0.5,0.1-0.7c0-0.2-0.3-0.5-0.8-0.8c-2.3-1.2-5-1.8-8-1.8
	c-3,0-5.5,0.7-7.5,2c-2.3,1.5-3.4,3.4-3.4,5.8c0,2.6,1.3,4.7,3.8,6.2c2,1.2,4.3,1.8,7,1.8c3.1,0,5.8-0.7,8-2.2
	c0.9-0.6,1.3-1,1.3-1.2c0-0.2-0.1-0.5-0.4-0.9l0.5-0.3l3.3,3.4l-0.4,0.3c-0.5-0.3-0.8-0.5-1.1-0.5c-0.1,0-0.3,0.1-0.5,0.2
	c-1.7,1.1-3.5,1.9-5.2,2.4c-1.7,0.5-3.7,0.7-5.9,0.7c-3.8,0-6.9-0.8-9.3-2.4c-1.2-0.8-2.2-1.8-3-2.9c-0.9-1.4-1.4-2.9-1.4-4.6
	c0-3.1,1.5-5.6,4.6-7.5c2.5-1.6,5.7-2.4,9.6-2.4c3.4,0,6.6,0.7,9.7,2c0.3,0.1,0.5,0.2,0.6,0.2c0.3,0,0.6-0.2,1-0.6L231.7,275.6z"/>
<path class="st0" d="M238,291.3v-15.1c0-0.5-0.1-0.8-0.3-1c-0.2-0.2-0.5-0.3-1.1-0.5v-0.5h5.8v0.5c-0.5,0.1-0.9,0.3-1.1,0.5
	c-0.2,0.2-0.3,0.5-0.3,1v15.1c0,0.5,0.1,0.8,0.3,1c0.2,0.2,0.5,0.4,1.1,0.5v0.5h-5.8v-0.5c0.5-0.1,0.9-0.3,1.1-0.5
	C237.9,292.1,238,291.7,238,291.3z"/>
<path class="st0" d="M260.9,273.8c4.2,0,7.6,0.9,10.2,2.6c2.8,1.9,4.1,4.3,4.1,7.4c0,1.9-0.7,3.7-2,5.2c-2.6,3-6.7,4.5-12.3,4.5
	c-4.2,0-7.6-0.9-10.2-2.6c-2.8-1.9-4.1-4.3-4.1-7.2c0-2,0.7-3.8,2-5.4c1.4-1.7,3.4-2.9,6-3.7C256.4,274.1,258.5,273.9,260.9,273.8z
	 M260.9,275.8c-3.5,0-6.2,0.8-8.3,2.5c-1.8,1.5-2.8,3.3-2.8,5.4c0,2.1,0.9,3.9,2.8,5.4c2.1,1.7,4.9,2.5,8.4,2.5
	c3.5,0,6.3-0.8,8.4-2.5c1.8-1.5,2.8-3.2,2.8-5.3c0-2.2-0.9-4-2.8-5.5C267.2,276.7,264.4,275.8,260.9,275.8z"/>
<path class="st0" d="M302.1,275.2l-2.3,3.7l-0.5-0.2c0.1-0.3,0.1-0.6,0.1-0.7c0-0.3-0.5-0.6-1.4-1c-2-0.8-4.3-1.3-7.1-1.3
	c-2.3,0-4.2,0.3-5.7,1c-1.6,0.7-2.4,1.6-2.4,2.8c0,0.5,0.2,1,0.6,1.5c0.4,0.4,0.9,0.7,1.6,0.9c0.7,0.2,1.4,0.3,2.2,0.4
	c0.8,0.1,2.4,0.1,5,0.2c2.1,0.1,3.8,0.2,4.9,0.3c1.1,0.2,2,0.4,2.8,0.8c0.8,0.4,1.5,0.9,2,1.6c0.5,0.7,0.7,1.5,0.7,2.3
	c0,1.7-0.9,3.1-2.7,4.2c-2.2,1.2-5,1.8-8.6,1.8c-1.8,0-3.6-0.2-5.5-0.6c-1.9-0.4-3.7-1-5.4-1.8c-0.2-0.1-0.4-0.2-0.5-0.2
	c-0.2,0-0.5,0.2-1,0.6l-0.5-0.3l2.7-3.6l0.5,0.2c0,0.1-0.1,0.2-0.1,0.3c-0.1,0.2-0.1,0.3-0.1,0.4c0,0.3,0.7,0.8,2.2,1.4
	c2.4,1,5,1.5,7.6,1.5c2.4,0,4.4-0.3,6-1c0.8-0.3,1.4-0.7,1.8-1.3c0.5-0.5,0.7-1.1,0.7-1.7c0-0.5-0.2-1-0.6-1.5
	c-0.4-0.4-0.9-0.7-1.5-0.9c-0.6-0.2-1.2-0.3-1.9-0.3c-0.7-0.1-2.1-0.1-4-0.2c-2.3-0.1-4-0.2-5-0.3c-1-0.1-2-0.3-2.8-0.5
	c-1.1-0.3-2-0.9-2.7-1.6c-0.7-0.8-1-1.6-1-2.7c0-1.8,1-3.2,3.1-4.3c2.1-1.1,4.8-1.6,8-1.6c3,0,6,0.5,9,1.6c0.5,0.1,0.7,0.2,0.8,0.2
	c0.2,0,0.5-0.2,0.8-0.6L302.1,275.2z"/>
<path class="st0" d="M326,284.3v7c0,0.5,0.1,0.8,0.3,1c0.2,0.2,0.5,0.4,1.1,0.5v0.5h-5.8v-0.5c0.5-0.1,0.9-0.3,1.1-0.5
	c0.2-0.2,0.3-0.5,0.3-1v-15.1c0-0.5-0.1-0.8-0.3-1c-0.2-0.2-0.5-0.3-1.1-0.5v-0.5H341c0.6,0,1-0.1,1.2-0.2c0.2-0.1,0.4-0.4,0.6-0.9
	h0.6v4h-0.6c-0.1-0.4-0.3-0.7-0.6-0.9c-0.2-0.1-0.7-0.2-1.2-0.2H326v6.4h9.7c0.6,0,1-0.1,1.3-0.2c0.2-0.1,0.4-0.4,0.6-0.9h0.6v4
	h-0.6c-0.1-0.4-0.3-0.7-0.6-0.9c-0.2-0.1-0.7-0.2-1.3-0.2H326z"/>
<path class="st0" d="M350.9,276.2v9.7c0,1.5,0.1,2.5,0.3,3.1c0.2,0.6,0.6,1,1.2,1.4c1.3,0.8,3.5,1.2,6.5,1.2c3.4,0,5.7-0.5,6.9-1.5
	c0.4-0.4,0.7-0.8,0.9-1.4c0.1-0.5,0.2-1.5,0.2-2.9v-9.7c0-0.5-0.1-0.8-0.3-1c-0.2-0.2-0.5-0.4-1.1-0.5v-0.5h5.2v0.5
	c-0.5,0.1-0.9,0.3-1.1,0.5c-0.2,0.2-0.3,0.5-0.3,1v10.2c0,1.7-0.2,3-0.6,3.7c-0.6,1.2-1.8,2.1-3.4,2.7c-1.7,0.6-3.9,0.9-6.8,0.9
	c-4.2,0-7.1-0.6-8.7-1.8c-0.8-0.6-1.3-1.2-1.6-2c-0.3-0.7-0.4-1.9-0.4-3.4v-10.2c0-0.5-0.1-0.8-0.3-1c-0.2-0.2-0.5-0.3-1.1-0.5v-0.5
	h5.8v0.5c-0.5,0.1-0.9,0.3-1.1,0.5C351,275.4,350.9,275.7,350.9,276.2z"/>
<path class="st0" d="M379.1,277.2v14.1c0,0.5,0.1,0.8,0.3,1c0.2,0.2,0.5,0.4,1.1,0.5v0.5h-5.2v-0.5c0.6-0.1,0.9-0.3,1.1-0.5
	c0.2-0.2,0.3-0.5,0.3-1v-15.1c0-0.5-0.1-0.8-0.3-1c-0.2-0.2-0.5-0.3-1.1-0.5v-0.5h7.7v0.5c-0.7,0.2-1.1,0.5-1.1,0.9
	c0,0.3,0.3,0.7,0.8,1.2l14,12.5v-13.2c0-0.5-0.1-0.8-0.3-1c-0.2-0.2-0.5-0.3-1.1-0.5v-0.5h5.2v0.5c-0.5,0.1-0.9,0.3-1.1,0.5
	c-0.2,0.2-0.3,0.5-0.3,1v15.1c0,0.5,0.1,0.8,0.3,1c0.2,0.2,0.5,0.4,1.1,0.5v0.5h-6.2v-0.5c0.7-0.1,1.1-0.4,1.1-0.7
	c0-0.2-0.3-0.7-1-1.3L379.1,277.2z"/>
<path class="st0" d="M409.6,284.3v7h14.7c0.6,0,1-0.1,1.3-0.2c0.2-0.1,0.4-0.4,0.6-0.9h0.6v4h-0.6c-0.1-0.4-0.3-0.7-0.6-0.9
	c-0.2-0.1-0.7-0.2-1.3-0.2h-19.1v-0.5c0.6-0.1,0.9-0.3,1.1-0.5c0.2-0.2,0.3-0.5,0.3-1v-15.1c0-0.5-0.1-0.8-0.3-1
	c-0.2-0.2-0.5-0.3-1.1-0.5v-0.5h19c0.6,0,1-0.1,1.3-0.2c0.2-0.1,0.4-0.4,0.6-0.9h0.6v4H426c-0.1-0.4-0.3-0.7-0.6-0.9
	c-0.2-0.1-0.7-0.2-1.3-0.2h-14.6v6.4h9.3c0.6,0,1-0.1,1.3-0.2c0.2-0.1,0.4-0.4,0.6-0.9h0.6v4h-0.6c-0.1-0.4-0.3-0.7-0.6-0.9
	c-0.2-0.1-0.7-0.2-1.2-0.2H409.6z"/>
<path class="st0" d="M435.4,284.6v6.7c0,0.5,0.1,0.8,0.3,1c0.2,0.2,0.5,0.4,1.1,0.5v0.5H431v-0.5c0.6-0.1,0.9-0.3,1.1-0.5
	c0.2-0.2,0.3-0.5,0.3-1v-15.1c0-0.5-0.1-0.8-0.3-1c-0.2-0.2-0.5-0.3-1.1-0.5v-0.5h14.1c1.6,0,2.9,0.1,3.9,0.3c1,0.2,1.9,0.5,2.6,0.9
	c1.6,0.9,2.5,2.3,2.5,4.1c0,1.5-0.6,2.6-1.7,3.4c-1.1,0.8-2.8,1.3-5.1,1.5l6,7.5c0.2,0.3,0.4,0.4,0.6,0.5c0.2,0.1,0.6,0.2,1.1,0.2
	v0.5h-5.9v-0.5c0.6-0.1,0.8-0.2,0.8-0.4c0-0.1-0.2-0.4-0.5-0.8l-5.5-6.9H435.4z M435.4,282.8h9c1.5,0,2.6,0,3.3-0.1
	c0.7-0.1,1.3-0.2,1.9-0.5c1.1-0.5,1.7-1.4,1.7-2.6c0-1.2-0.5-2.1-1.6-2.7c-1-0.6-2.6-0.8-4.9-0.8h-9.4V282.8z"/>
<path class="st0" d="M475.5,287.9H463l-1.8,3.2c-0.2,0.4-0.3,0.7-0.3,0.9c0,0.4,0.4,0.7,1.1,0.8v0.5h-5.9v-0.5
	c0.6-0.1,1-0.3,1.3-0.5c0.3-0.3,0.7-0.8,1.1-1.6l7.9-13.6c0.4-0.8,0.7-1.3,0.7-1.6c0-0.4-0.4-0.6-1.1-0.7v-0.5h6.9v0.5
	c-0.7,0.1-1.1,0.4-1.1,0.7c0,0.2,0.3,0.8,0.8,1.8l7.6,13.1c0.5,0.9,0.9,1.5,1.3,1.8c0.4,0.3,0.8,0.5,1.4,0.6v0.5h-6.2v-0.5
	c0.7-0.1,1-0.3,1-0.6c0-0.1-0.2-0.5-0.5-1.1L475.5,287.9z M474.5,286l-5.2-9.3L464,286H474.5z"/>
<path class="st0" d="M489.6,284.6v6.7c0,0.5,0.1,0.8,0.3,1c0.2,0.2,0.5,0.4,1.1,0.5v0.5h-5.8v-0.5c0.6-0.1,0.9-0.3,1.1-0.5
	c0.2-0.2,0.3-0.5,0.3-1v-15.1c0-0.5-0.1-0.8-0.3-1c-0.2-0.2-0.5-0.3-1.1-0.5v-0.5h14.1c1.6,0,2.9,0.1,3.9,0.3c1,0.2,1.9,0.5,2.6,0.9
	c1.6,0.9,2.5,2.3,2.5,4.1c0,1.5-0.6,2.6-1.7,3.4c-1.1,0.8-2.8,1.3-5.1,1.5l6,7.5c0.2,0.3,0.4,0.4,0.6,0.5c0.2,0.1,0.6,0.2,1.1,0.2
	v0.5h-5.9v-0.5c0.6-0.1,0.8-0.2,0.8-0.4c0-0.1-0.2-0.4-0.5-0.8l-5.5-6.9H489.6z M489.6,282.8h9c1.5,0,2.6,0,3.3-0.1
	c0.7-0.1,1.3-0.2,1.9-0.5c1.1-0.5,1.7-1.4,1.7-2.6c0-1.2-0.5-2.1-1.6-2.7c-1-0.6-2.6-0.8-4.9-0.8h-9.4V282.8z"/>
<path class="st0" d="M513.9,291.3v-15.1c0-0.5-0.1-0.8-0.3-1c-0.2-0.2-0.5-0.3-1.1-0.5v-0.5h5.8v0.5c-0.5,0.1-0.9,0.3-1.1,0.5
	c-0.2,0.2-0.3,0.5-0.3,1v15.1c0,0.5,0.1,0.8,0.3,1c0.2,0.2,0.5,0.4,1.1,0.5v0.5h-5.8v-0.5c0.5-0.1,0.9-0.3,1.1-0.5
	C513.8,292.1,513.9,291.7,513.9,291.3z"/>
<path class="st0" d="M537,273.8c4.2,0,7.6,0.9,10.2,2.6c2.8,1.9,4.1,4.3,4.1,7.4c0,1.9-0.7,3.7-2,5.2c-2.6,3-6.7,4.5-12.3,4.5
	c-4.2,0-7.6-0.9-10.2-2.6c-2.8-1.9-4.1-4.3-4.1-7.2c0-2,0.7-3.8,2-5.4c1.4-1.7,3.4-2.9,6-3.7C532.5,274.1,534.6,273.9,537,273.8z
	 M537,275.8c-3.5,0-6.2,0.8-8.3,2.5c-1.8,1.5-2.8,3.3-2.8,5.4c0,2.1,0.9,3.9,2.8,5.4c2.1,1.7,4.9,2.5,8.4,2.5c3.5,0,6.3-0.8,8.4-2.5
	c1.8-1.5,2.8-3.2,2.8-5.3c0-2.2-0.9-4-2.8-5.5C543.3,276.7,540.5,275.8,537,275.8z"/>
<path class="st0" d="M578.2,275.2l-2.3,3.7l-0.5-0.2c0.1-0.3,0.1-0.6,0.1-0.7c0-0.3-0.5-0.6-1.4-1c-2-0.8-4.3-1.3-7.1-1.3
	c-2.3,0-4.2,0.3-5.7,1c-1.6,0.7-2.4,1.6-2.4,2.8c0,0.5,0.2,1,0.6,1.5c0.4,0.4,0.9,0.7,1.6,0.9c0.7,0.2,1.4,0.3,2.2,0.4
	c0.8,0.1,2.4,0.1,5,0.2c2.1,0.1,3.8,0.2,4.9,0.3c1.1,0.2,2,0.4,2.8,0.8c0.8,0.4,1.5,0.9,2,1.6c0.5,0.7,0.7,1.5,0.7,2.3
	c0,1.7-0.9,3.1-2.7,4.2c-2.2,1.2-5,1.8-8.6,1.8c-1.8,0-3.6-0.2-5.5-0.6c-1.9-0.4-3.7-1-5.4-1.8c-0.2-0.1-0.4-0.2-0.5-0.2
	c-0.2,0-0.5,0.2-1,0.6l-0.5-0.3l2.7-3.6l0.5,0.2c0,0.1-0.1,0.2-0.1,0.3c-0.1,0.2-0.1,0.3-0.1,0.4c0,0.3,0.7,0.8,2.2,1.4
	c2.4,1,5,1.5,7.6,1.5c2.4,0,4.4-0.3,6-1c0.8-0.3,1.4-0.7,1.8-1.3c0.5-0.5,0.7-1.1,0.7-1.7c0-0.5-0.2-1-0.6-1.5
	c-0.4-0.4-0.9-0.7-1.5-0.9c-0.6-0.2-1.2-0.3-1.9-0.3c-0.7-0.1-2.1-0.1-4-0.2c-2.3-0.1-4-0.2-5-0.3c-1-0.1-2-0.3-2.8-0.5
	c-1.1-0.3-2-0.9-2.7-1.6c-0.7-0.8-1-1.6-1-2.7c0-1.8,1-3.2,3.1-4.3c2.1-1.1,4.8-1.6,8-1.6c3,0,6,0.5,9,1.6c0.5,0.1,0.7,0.2,0.8,0.2
	c0.2,0,0.5-0.2,0.8-0.6L578.2,275.2z"/>
</svg>
